<?xml version="1.0" encoding="utf-8" standalone="no"?>
<!DOCTYPE svg PUBLIC "-//W3C//DTD SVG 1.1//EN"
  "http://www.w3.org/Graphics/SVG/1.1/DTD/svg11.dtd">
<svg xmlns:xlink="http://www.w3.org/1999/xlink" width="996.495pt" height="420.71625pt" viewBox="0 0 996.495 420.71625" xmlns="http://www.w3.org/2000/svg" version="1.1">
 <metadata>
  <rdf:RDF xmlns:dc="http://purl.org/dc/elements/1.1/" xmlns:cc="http://creativecommons.org/ns#" xmlns:rdf="http://www.w3.org/1999/02/22-rdf-syntax-ns#">
   <cc:Work>
    <dc:type rdf:resource="http://purl.org/dc/dcmitype/StillImage"/>
    <dc:date>2026-06-15T00:55:14.367232</dc:date>
    <dc:format>image/svg+xml</dc:format>
    <dc:creator>
     <cc:Agent>
      <dc:title>Matplotlib v3.10.3, https://matplotlib.org/</dc:title>
     </cc:Agent>
    </dc:creator>
   </cc:Work>
  </rdf:RDF>
 </metadata>
 <defs>
  <style type="text/css">*{stroke-linejoin: round; stroke-linecap: butt}</style>
 </defs>
 <g id="figure_1">
  <g id="patch_1">
   <path d="M 0 420.71625 
L 996.495 420.71625 
L 996.495 0 
L 0 0 
z
" style="fill: #ffffff"/>
  </g>
  <g id="axes_1">
   <g id="patch_2">
    <path d="M 55.139375 379.28875 
L 977.8425 379.28875 
L 977.8425 7.2 
L 55.139375 7.2 
z
" style="fill: #ffffff"/>
   </g>
   <g id="patch_3">
    <path d="M 55.139375 379.28875 
L 977.8425 379.28875 
L 977.8425 118.173838 
L 55.139375 118.173838 
z
" clip-path="url(#p209ed8d985)" style="fill: #4c9085; opacity: 0.95"/>
   </g>
   <g id="patch_4">
    <path d="M 55.139375 52.89511 
L 977.8425 52.89511 
L 977.8425 118.173838 
L 55.139375 118.173838 
z
" clip-path="url(#p209ed8d985)" style="fill: #e6d5a8; opacity: 0.9"/>
   </g>
   <g id="matplotlib.axis_1">
    <g id="xtick_1">
     <g id="line2d_1">
      <defs>
       <path id="mef6f0928c1" d="M 0 0 
L 0 3.5 
" style="stroke: #000000; stroke-width: 0.8"/>
      </defs>
      <g>
       <use xlink:href="#mef6f0928c1" x="55.139375" y="379.28875" style="stroke: #000000; stroke-width: 0.8"/>
      </g>
     </g>
     <g id="text_1">
      <!-- 0 -->
      <g transform="translate(51.321875 395.406875) scale(0.12 -0.12)">
       <defs>
        <path id="DejaVuSerif-30" d="M 2034 219 
Q 2513 219 2750 744 
Q 2988 1269 2988 2328 
Q 2988 3391 2750 3916 
Q 2513 4441 2034 4441 
Q 1556 4441 1318 3916 
Q 1081 3391 1081 2328 
Q 1081 1269 1318 744 
Q 1556 219 2034 219 
z
M 2034 -91 
Q 1275 -91 848 546 
Q 422 1184 422 2328 
Q 422 3475 848 4112 
Q 1275 4750 2034 4750 
Q 2797 4750 3222 4112 
Q 3647 3475 3647 2328 
Q 3647 1184 3222 546 
Q 2797 -91 2034 -91 
z
" transform="scale(0.015625)"/>
       </defs>
       <use xlink:href="#DejaVuSerif-30"/>
      </g>
     </g>
    </g>
    <g id="xtick_2">
     <g id="line2d_2">
      <g>
       <use xlink:href="#mef6f0928c1" x="239.68" y="379.28875" style="stroke: #000000; stroke-width: 0.8"/>
      </g>
     </g>
     <g id="text_2">
      <!-- 20 -->
      <g transform="translate(232.045 395.406875) scale(0.12 -0.12)">
       <defs>
        <path id="DejaVuSerif-32" d="M 819 3553 
L 469 3553 
L 469 4384 
Q 803 4563 1142 4656 
Q 1481 4750 1806 4750 
Q 2534 4750 2956 4397 
Q 3378 4044 3378 3438 
Q 3378 2753 2422 1800 
Q 2347 1728 2309 1691 
L 1131 513 
L 3078 513 
L 3078 1088 
L 3444 1088 
L 3444 0 
L 434 0 
L 434 341 
L 1850 1753 
Q 2319 2222 2519 2614 
Q 2719 3006 2719 3438 
Q 2719 3909 2473 4175 
Q 2228 4441 1797 4441 
Q 1350 4441 1106 4219 
Q 863 3997 819 3553 
z
" transform="scale(0.015625)"/>
       </defs>
       <use xlink:href="#DejaVuSerif-32"/>
       <use xlink:href="#DejaVuSerif-30" transform="translate(63.623047 0)"/>
      </g>
     </g>
    </g>
    <g id="xtick_3">
     <g id="line2d_3">
      <g>
       <use xlink:href="#mef6f0928c1" x="424.220625" y="379.28875" style="stroke: #000000; stroke-width: 0.8"/>
      </g>
     </g>
     <g id="text_3">
      <!-- 40 -->
      <g transform="translate(416.585625 395.406875) scale(0.12 -0.12)">
       <defs>
        <path id="DejaVuSerif-34" d="M 2234 1581 
L 2234 4063 
L 641 1581 
L 2234 1581 
z
M 3609 0 
L 1484 0 
L 1484 331 
L 2234 331 
L 2234 1247 
L 197 1247 
L 197 1588 
L 2241 4750 
L 2859 4750 
L 2859 1581 
L 3750 1581 
L 3750 1247 
L 2859 1247 
L 2859 331 
L 3609 331 
L 3609 0 
z
" transform="scale(0.015625)"/>
       </defs>
       <use xlink:href="#DejaVuSerif-34"/>
       <use xlink:href="#DejaVuSerif-30" transform="translate(63.623047 0)"/>
      </g>
     </g>
    </g>
    <g id="xtick_4">
     <g id="line2d_4">
      <g>
       <use xlink:href="#mef6f0928c1" x="608.76125" y="379.28875" style="stroke: #000000; stroke-width: 0.8"/>
      </g>
     </g>
     <g id="text_4">
      <!-- 60 -->
      <g transform="translate(601.12625 395.406875) scale(0.12 -0.12)">
       <defs>
        <path id="DejaVuSerif-36" d="M 2094 219 
Q 2534 219 2771 542 
Q 3009 866 3009 1472 
Q 3009 2078 2771 2401 
Q 2534 2725 2094 2725 
Q 1647 2725 1412 2412 
Q 1178 2100 1178 1509 
Q 1178 888 1415 553 
Q 1653 219 2094 219 
z
M 1075 2569 
Q 1288 2803 1556 2918 
Q 1825 3034 2163 3034 
Q 2859 3034 3264 2615 
Q 3669 2197 3669 1472 
Q 3669 763 3233 336 
Q 2797 -91 2069 -91 
Q 1278 -91 853 498 
Q 428 1088 428 2181 
Q 428 3406 931 4078 
Q 1434 4750 2350 4750 
Q 2597 4750 2869 4703 
Q 3141 4656 3425 4563 
L 3425 3794 
L 3072 3794 
Q 3034 4109 2831 4275 
Q 2628 4441 2284 4441 
Q 1678 4441 1381 3981 
Q 1084 3522 1075 2569 
z
" transform="scale(0.015625)"/>
       </defs>
       <use xlink:href="#DejaVuSerif-36"/>
       <use xlink:href="#DejaVuSerif-30" transform="translate(63.623047 0)"/>
      </g>
     </g>
    </g>
    <g id="xtick_5">
     <g id="line2d_5">
      <g>
       <use xlink:href="#mef6f0928c1" x="793.301875" y="379.28875" style="stroke: #000000; stroke-width: 0.8"/>
      </g>
     </g>
     <g id="text_5">
      <!-- 80 -->
      <g transform="translate(785.666875 395.406875) scale(0.12 -0.12)">
       <defs>
        <path id="DejaVuSerif-38" d="M 2981 1275 
Q 2981 1775 2732 2051 
Q 2484 2328 2034 2328 
Q 1584 2328 1336 2051 
Q 1088 1775 1088 1275 
Q 1088 772 1336 495 
Q 1584 219 2034 219 
Q 2484 219 2732 495 
Q 2981 772 2981 1275 
z
M 2853 3541 
Q 2853 3966 2637 4203 
Q 2422 4441 2034 4441 
Q 1650 4441 1433 4203 
Q 1216 3966 1216 3541 
Q 1216 3113 1433 2875 
Q 1650 2638 2034 2638 
Q 2422 2638 2637 2875 
Q 2853 3113 2853 3541 
z
M 2516 2484 
Q 3047 2413 3344 2092 
Q 3641 1772 3641 1275 
Q 3641 619 3225 264 
Q 2809 -91 2034 -91 
Q 1263 -91 845 264 
Q 428 619 428 1275 
Q 428 1772 725 2092 
Q 1022 2413 1556 2484 
Q 1084 2569 832 2842 
Q 581 3116 581 3541 
Q 581 4103 968 4426 
Q 1356 4750 2034 4750 
Q 2713 4750 3100 4426 
Q 3488 4103 3488 3541 
Q 3488 3116 3236 2842 
Q 2984 2569 2516 2484 
z
" transform="scale(0.015625)"/>
       </defs>
       <use xlink:href="#DejaVuSerif-38"/>
       <use xlink:href="#DejaVuSerif-30" transform="translate(63.623047 0)"/>
      </g>
     </g>
    </g>
    <g id="xtick_6">
     <g id="line2d_6">
      <g>
       <use xlink:href="#mef6f0928c1" x="977.8425" y="379.28875" style="stroke: #000000; stroke-width: 0.8"/>
      </g>
     </g>
     <g id="text_6">
      <!-- 100 -->
      <g transform="translate(966.39 395.406875) scale(0.12 -0.12)">
       <defs>
        <path id="DejaVuSerif-31" d="M 909 0 
L 909 331 
L 1722 331 
L 1722 4213 
L 781 3603 
L 781 4013 
L 1919 4750 
L 2350 4750 
L 2350 331 
L 3163 331 
L 3163 0 
L 909 0 
z
" transform="scale(0.015625)"/>
       </defs>
       <use xlink:href="#DejaVuSerif-31"/>
       <use xlink:href="#DejaVuSerif-30" transform="translate(63.623047 0)"/>
       <use xlink:href="#DejaVuSerif-30" transform="translate(127.246094 0)"/>
      </g>
     </g>
    </g>
    <g id="text_7">
     <!-- South → North -->
     <g transform="translate(471.781563 411.020625) scale(0.12 -0.12)">
      <defs>
       <path id="DejaVuSerif-53" d="M 594 225 
L 594 1288 
L 953 1284 
Q 969 753 1261 498 
Q 1553 244 2150 244 
Q 2706 244 2998 464 
Q 3291 684 3291 1106 
Q 3291 1444 3114 1625 
Q 2938 1806 2369 1978 
L 1753 2163 
Q 1084 2366 811 2669 
Q 538 2972 538 3500 
Q 538 4094 959 4422 
Q 1381 4750 2144 4750 
Q 2469 4750 2856 4679 
Q 3244 4609 3681 4475 
L 3681 3481 
L 3328 3481 
Q 3275 3975 2998 4195 
Q 2722 4416 2156 4416 
Q 1663 4416 1405 4214 
Q 1147 4013 1147 3628 
Q 1147 3294 1340 3103 
Q 1534 2913 2163 2725 
L 2741 2553 
Q 3375 2363 3645 2067 
Q 3916 1772 3916 1275 
Q 3916 597 3481 253 
Q 3047 -91 2188 -91 
Q 1803 -91 1404 -12 
Q 1006 66 594 225 
z
" transform="scale(0.015625)"/>
       <path id="DejaVuSerif-6f" d="M 1925 219 
Q 2388 219 2623 584 
Q 2859 950 2859 1663 
Q 2859 2375 2623 2739 
Q 2388 3103 1925 3103 
Q 1463 3103 1227 2739 
Q 991 2375 991 1663 
Q 991 950 1228 584 
Q 1466 219 1925 219 
z
M 1925 -91 
Q 1200 -91 759 389 
Q 319 869 319 1663 
Q 319 2456 758 2934 
Q 1197 3413 1925 3413 
Q 2653 3413 3092 2934 
Q 3531 2456 3531 1663 
Q 3531 869 3092 389 
Q 2653 -91 1925 -91 
z
" transform="scale(0.015625)"/>
       <path id="DejaVuSerif-75" d="M 2266 3322 
L 3341 3322 
L 3341 331 
L 3884 331 
L 3884 0 
L 2766 0 
L 2766 588 
Q 2606 256 2353 82 
Q 2100 -91 1766 -91 
Q 1213 -91 952 223 
Q 691 538 691 1209 
L 691 2988 
L 172 2988 
L 172 3322 
L 1269 3322 
L 1269 1388 
Q 1269 781 1417 556 
Q 1566 331 1947 331 
Q 2347 331 2556 625 
Q 2766 919 2766 1478 
L 2766 2988 
L 2266 2988 
L 2266 3322 
z
" transform="scale(0.015625)"/>
       <path id="DejaVuSerif-74" d="M 691 2988 
L 184 2988 
L 184 3322 
L 691 3322 
L 691 4353 
L 1269 4353 
L 1269 3322 
L 2350 3322 
L 2350 2988 
L 1269 2988 
L 1269 878 
Q 1269 456 1350 337 
Q 1431 219 1650 219 
Q 1875 219 1978 351 
Q 2081 484 2088 781 
L 2522 781 
Q 2497 328 2275 118 
Q 2053 -91 1600 -91 
Q 1103 -91 897 129 
Q 691 350 691 878 
L 691 2988 
z
" transform="scale(0.015625)"/>
       <path id="DejaVuSerif-68" d="M 263 0 
L 263 331 
L 781 331 
L 781 4531 
L 231 4531 
L 231 4863 
L 1356 4863 
L 1356 2731 
Q 1516 3069 1770 3241 
Q 2025 3413 2363 3413 
Q 2913 3413 3172 3097 
Q 3431 2781 3431 2113 
L 3431 331 
L 3944 331 
L 3944 0 
L 2356 0 
L 2356 331 
L 2853 331 
L 2853 1931 
Q 2853 2541 2704 2764 
Q 2556 2988 2175 2988 
Q 1775 2988 1565 2697 
Q 1356 2406 1356 1850 
L 1356 331 
L 1856 331 
L 1856 0 
L 263 0 
z
" transform="scale(0.015625)"/>
       <path id="DejaVuSerif-20" transform="scale(0.015625)"/>
       <path id="DejaVuSerif-2192" d="M 366 2322 
L 4391 2322 
L 3788 3375 
L 3822 3375 
L 5125 2084 
L 5125 2053 
L 3822 763 
L 3788 763 
L 4391 1816 
L 366 1816 
L 366 2322 
z
" transform="scale(0.015625)"/>
       <path id="DejaVuSerif-4e" d="M 313 0 
L 313 331 
L 941 331 
L 941 4331 
L 313 4331 
L 313 4666 
L 1509 4666 
L 4306 984 
L 4306 4331 
L 3681 4331 
L 3681 4666 
L 5319 4666 
L 5319 4331 
L 4691 4331 
L 4691 -91 
L 4313 -91 
L 1325 3841 
L 1325 331 
L 1953 331 
L 1953 0 
L 313 0 
z
" transform="scale(0.015625)"/>
       <path id="DejaVuSerif-72" d="M 3059 3328 
L 3059 2497 
L 2728 2497 
Q 2713 2744 2591 2866 
Q 2469 2988 2234 2988 
Q 1809 2988 1582 2694 
Q 1356 2400 1356 1850 
L 1356 331 
L 2022 331 
L 2022 0 
L 263 0 
L 263 331 
L 781 331 
L 781 2994 
L 231 2994 
L 231 3322 
L 1356 3322 
L 1356 2731 
Q 1525 3078 1790 3245 
Q 2056 3413 2438 3413 
Q 2578 3413 2733 3391 
Q 2888 3369 3059 3328 
z
" transform="scale(0.015625)"/>
      </defs>
      <use xlink:href="#DejaVuSerif-53"/>
      <use xlink:href="#DejaVuSerif-6f" transform="translate(68.505859 0)"/>
      <use xlink:href="#DejaVuSerif-75" transform="translate(128.710938 0)"/>
      <use xlink:href="#DejaVuSerif-74" transform="translate(193.115234 0)"/>
      <use xlink:href="#DejaVuSerif-68" transform="translate(233.300781 0)"/>
      <use xlink:href="#DejaVuSerif-20" transform="translate(297.705078 0)"/>
      <use xlink:href="#DejaVuSerif-2192" transform="translate(329.492188 0)"/>
      <use xlink:href="#DejaVuSerif-20" transform="translate(413.28125 0)"/>
      <use xlink:href="#DejaVuSerif-4e" transform="translate(445.068359 0)"/>
      <use xlink:href="#DejaVuSerif-6f" transform="translate(532.568359 0)"/>
      <use xlink:href="#DejaVuSerif-72" transform="translate(592.773438 0)"/>
      <use xlink:href="#DejaVuSerif-74" transform="translate(640.576172 0)"/>
      <use xlink:href="#DejaVuSerif-68" transform="translate(680.761719 0)"/>
     </g>
    </g>
   </g>
   <g id="matplotlib.axis_2">
    <g id="ytick_1">
     <g id="line2d_7">
      <defs>
       <path id="macc81251a0" d="M 0 0 
L -3.5 0 
" style="stroke: #000000; stroke-width: 0.8"/>
      </defs>
      <g>
       <use xlink:href="#macc81251a0" x="55.139375" y="85.534474" style="stroke: #000000; stroke-width: 0.8"/>
      </g>
     </g>
     <g id="text_8">
      <!-- 0 -->
      <g transform="translate(40.504375 90.093536) scale(0.12 -0.12)">
       <use xlink:href="#DejaVuSerif-30"/>
      </g>
     </g>
    </g>
    <g id="ytick_2">
     <g id="line2d_8">
      <g>
       <use xlink:href="#macc81251a0" x="55.139375" y="150.813202" style="stroke: #000000; stroke-width: 0.8"/>
      </g>
     </g>
     <g id="text_9">
      <!-- −10 -->
      <g transform="translate(22.81375 155.372264) scale(0.12 -0.12)">
       <defs>
        <path id="DejaVuSerif-2212" d="M 678 2259 
L 4684 2259 
L 4684 1753 
L 678 1753 
L 678 2259 
z
" transform="scale(0.015625)"/>
       </defs>
       <use xlink:href="#DejaVuSerif-2212"/>
       <use xlink:href="#DejaVuSerif-31" transform="translate(83.789062 0)"/>
       <use xlink:href="#DejaVuSerif-30" transform="translate(147.412109 0)"/>
      </g>
     </g>
    </g>
    <g id="ytick_3">
     <g id="line2d_9">
      <g>
       <use xlink:href="#macc81251a0" x="55.139375" y="216.09193" style="stroke: #000000; stroke-width: 0.8"/>
      </g>
     </g>
     <g id="text_10">
      <!-- −20 -->
      <g transform="translate(22.81375 220.650992) scale(0.12 -0.12)">
       <use xlink:href="#DejaVuSerif-2212"/>
       <use xlink:href="#DejaVuSerif-32" transform="translate(83.789062 0)"/>
       <use xlink:href="#DejaVuSerif-30" transform="translate(147.412109 0)"/>
      </g>
     </g>
    </g>
    <g id="ytick_4">
     <g id="line2d_10">
      <g>
       <use xlink:href="#macc81251a0" x="55.139375" y="281.370658" style="stroke: #000000; stroke-width: 0.8"/>
      </g>
     </g>
     <g id="text_11">
      <!-- −30 -->
      <g transform="translate(22.81375 285.92972) scale(0.12 -0.12)">
       <defs>
        <path id="DejaVuSerif-33" d="M 622 4469 
Q 988 4606 1323 4678 
Q 1659 4750 1953 4750 
Q 2638 4750 3022 4454 
Q 3406 4159 3406 3634 
Q 3406 3213 3140 2930 
Q 2875 2647 2388 2547 
Q 2963 2466 3280 2130 
Q 3597 1794 3597 1259 
Q 3597 606 3158 257 
Q 2719 -91 1894 -91 
Q 1528 -91 1179 -12 
Q 831 66 488 225 
L 488 1131 
L 838 1131 
Q 869 681 1141 450 
Q 1413 219 1906 219 
Q 2384 219 2661 495 
Q 2938 772 2938 1253 
Q 2938 1803 2653 2086 
Q 2369 2369 1819 2369 
L 1522 2369 
L 1522 2688 
L 1678 2688 
Q 2225 2688 2498 2914 
Q 2772 3141 2772 3597 
Q 2772 4006 2547 4223 
Q 2322 4441 1900 4441 
Q 1478 4441 1245 4241 
Q 1013 4041 972 3647 
L 622 3647 
L 622 4469 
z
" transform="scale(0.015625)"/>
       </defs>
       <use xlink:href="#DejaVuSerif-2212"/>
       <use xlink:href="#DejaVuSerif-33" transform="translate(83.789062 0)"/>
       <use xlink:href="#DejaVuSerif-30" transform="translate(147.412109 0)"/>
      </g>
     </g>
    </g>
    <g id="ytick_5">
     <g id="line2d_11">
      <g>
       <use xlink:href="#macc81251a0" x="55.139375" y="346.649386" style="stroke: #000000; stroke-width: 0.8"/>
      </g>
     </g>
     <g id="text_12">
      <!-- −40 -->
      <g transform="translate(22.81375 351.208448) scale(0.12 -0.12)">
       <use xlink:href="#DejaVuSerif-2212"/>
       <use xlink:href="#DejaVuSerif-34" transform="translate(83.789062 0)"/>
       <use xlink:href="#DejaVuSerif-30" transform="translate(147.412109 0)"/>
      </g>
     </g>
    </g>
    <g id="text_13">
     <!-- Depth (km) -->
     <g transform="translate(16.318125 227.636562) rotate(-90) scale(0.12 -0.12)">
      <defs>
       <path id="DejaVuSerif-44" d="M 1581 331 
L 2163 331 
Q 3072 331 3558 850 
Q 4044 1369 4044 2338 
Q 4044 3306 3559 3818 
Q 3075 4331 2163 4331 
L 1581 4331 
L 1581 331 
z
M 353 0 
L 353 331 
L 947 331 
L 947 4331 
L 353 4331 
L 353 4666 
L 2209 4666 
Q 3416 4666 4089 4050 
Q 4763 3434 4763 2338 
Q 4763 1238 4088 619 
Q 3413 0 2209 0 
L 353 0 
z
" transform="scale(0.015625)"/>
       <path id="DejaVuSerif-65" d="M 3469 1600 
L 991 1600 
L 991 1575 
Q 991 903 1244 561 
Q 1497 219 1991 219 
Q 2369 219 2611 417 
Q 2853 616 2950 1006 
L 3413 1006 
Q 3275 459 2904 184 
Q 2534 -91 1931 -91 
Q 1203 -91 761 389 
Q 319 869 319 1663 
Q 319 2450 753 2931 
Q 1188 3413 1894 3413 
Q 2647 3413 3050 2948 
Q 3453 2484 3469 1600 
z
M 2791 1931 
Q 2772 2513 2545 2808 
Q 2319 3103 1894 3103 
Q 1497 3103 1269 2806 
Q 1041 2509 991 1931 
L 2791 1931 
z
" transform="scale(0.015625)"/>
       <path id="DejaVuSerif-70" d="M 1313 1825 
L 1313 1497 
Q 1313 897 1542 583 
Q 1772 269 2209 269 
Q 2650 269 2876 622 
Q 3103 975 3103 1663 
Q 3103 2353 2876 2703 
Q 2650 3053 2209 3053 
Q 1772 3053 1542 2737 
Q 1313 2422 1313 1825 
z
M 738 2988 
L 184 2988 
L 184 3322 
L 1313 3322 
L 1313 2803 
Q 1481 3116 1742 3264 
Q 2003 3413 2388 3413 
Q 3000 3413 3387 2928 
Q 3775 2444 3775 1663 
Q 3775 881 3387 395 
Q 3000 -91 2388 -91 
Q 2003 -91 1742 57 
Q 1481 206 1313 519 
L 1313 -997 
L 1856 -997 
L 1856 -1331 
L 184 -1331 
L 184 -997 
L 738 -997 
L 738 2988 
z
" transform="scale(0.015625)"/>
       <path id="DejaVuSerif-28" d="M 2041 -997 
Q 1281 -656 893 83 
Q 506 822 506 1931 
Q 506 3044 893 3783 
Q 1281 4522 2041 4863 
L 2041 4556 
Q 1559 4225 1350 3623 
Q 1141 3022 1141 1931 
Q 1141 844 1350 242 
Q 1559 -359 2041 -691 
L 2041 -997 
z
" transform="scale(0.015625)"/>
       <path id="DejaVuSerif-6b" d="M 1831 0 
L 219 0 
L 219 331 
L 738 331 
L 738 4531 
L 184 4531 
L 184 4863 
L 1313 4863 
L 1313 1697 
L 2713 2988 
L 2234 2988 
L 2234 3322 
L 3738 3322 
L 3738 2988 
L 3169 2988 
L 2181 2075 
L 3444 331 
L 3922 331 
L 3922 0 
L 2284 0 
L 2284 331 
L 2759 331 
L 1766 1697 
L 1313 1275 
L 1313 331 
L 1831 331 
L 1831 0 
z
" transform="scale(0.015625)"/>
       <path id="DejaVuSerif-6d" d="M 3316 2675 
Q 3481 3041 3739 3227 
Q 3997 3413 4341 3413 
Q 4863 3413 5119 3089 
Q 5375 2766 5375 2113 
L 5375 331 
L 5894 331 
L 5894 0 
L 4300 0 
L 4300 331 
L 4800 331 
L 4800 2047 
Q 4800 2556 4650 2772 
Q 4500 2988 4153 2988 
Q 3769 2988 3567 2697 
Q 3366 2406 3366 1850 
L 3366 331 
L 3866 331 
L 3866 0 
L 2291 0 
L 2291 331 
L 2791 331 
L 2791 2069 
Q 2791 2566 2641 2777 
Q 2491 2988 2144 2988 
Q 1759 2988 1557 2697 
Q 1356 2406 1356 1850 
L 1356 331 
L 1856 331 
L 1856 0 
L 263 0 
L 263 331 
L 781 331 
L 781 2994 
L 231 2994 
L 231 3322 
L 1356 3322 
L 1356 2731 
Q 1516 3063 1762 3238 
Q 2009 3413 2322 3413 
Q 2709 3413 2968 3220 
Q 3228 3028 3316 2675 
z
" transform="scale(0.015625)"/>
       <path id="DejaVuSerif-29" d="M 453 -997 
L 453 -691 
Q 934 -359 1145 242 
Q 1356 844 1356 1931 
Q 1356 3022 1145 3623 
Q 934 4225 453 4556 
L 453 4863 
Q 1216 4522 1603 3783 
Q 1991 3044 1991 1931 
Q 1991 822 1603 83 
Q 1216 -656 453 -997 
z
" transform="scale(0.015625)"/>
      </defs>
      <use xlink:href="#DejaVuSerif-44"/>
      <use xlink:href="#DejaVuSerif-65" transform="translate(80.175781 0)"/>
      <use xlink:href="#DejaVuSerif-70" transform="translate(139.355469 0)"/>
      <use xlink:href="#DejaVuSerif-74" transform="translate(203.369141 0)"/>
      <use xlink:href="#DejaVuSerif-68" transform="translate(243.554688 0)"/>
      <use xlink:href="#DejaVuSerif-20" transform="translate(307.958984 0)"/>
      <use xlink:href="#DejaVuSerif-28" transform="translate(339.746094 0)"/>
      <use xlink:href="#DejaVuSerif-6b" transform="translate(378.759766 0)"/>
      <use xlink:href="#DejaVuSerif-6d" transform="translate(439.355469 0)"/>
      <use xlink:href="#DejaVuSerif-29" transform="translate(534.179688 0)"/>
     </g>
    </g>
   </g>
   <g id="line2d_12">
    <path d="M 55.139375 85.534474 
L 147.409688 83.576112 
L 239.68 84.228899 
L 331.950313 80.312175 
L 424.220625 76.395452 
L 516.490938 79.006601 
L 608.76125 69.867579 
L 701.031563 62.686919 
L 793.301875 67.909217 
L 885.572188 75.089877 
L 977.8425 80.312175 
" clip-path="url(#p209ed8d985)" style="fill: none; stroke: #000000; stroke-width: 2; stroke-linecap: square"/>
   </g>
   <g id="line2d_13">
    <path d="M 239.68 85.534474 
L 285.815156 118.173838 
L 331.950313 150.813202 
L 378.085469 176.924693 
L 424.220625 189.980439 
L 470.355781 196.508311 
L 516.490938 203.036184 
L 562.626094 203.036184 
L 608.76125 203.036184 
L 654.896406 209.564057 
L 701.031563 222.619803 
L 747.166719 242.203421 
L 793.301875 268.314912 
L 885.572188 314.010022 
L 977.8425 346.649386 
" clip-path="url(#p209ed8d985)" style="fill: none; stroke: #000000; stroke-width: 4; stroke-linecap: round"/>
   </g>
   <g id="line2d_14">
    <path d="M 424.220625 189.980439 
L 608.76125 203.036184 
" clip-path="url(#p209ed8d985)" style="fill: none; stroke: #c62828; stroke-width: 8; stroke-linecap: round"/>
   </g>
   <g id="line2d_15">
    <path d="M 571.853125 203.036184 
L 654.896406 203.036184 
" clip-path="url(#p209ed8d985)" style="fill: none; stroke: #1565c0; stroke-width: 8; stroke-linecap: round"/>
   </g>
   <g id="line2d_16">
    <path d="M 747.166719 359.705132 
L 931.707344 359.705132 
" clip-path="url(#p209ed8d985)" style="fill: none; stroke: #000000; stroke-width: 3; stroke-linecap: square"/>
   </g>
   <g id="patch_5">
    <path d="M 55.139375 379.28875 
L 55.139375 7.2 
" style="fill: none; stroke: #000000; stroke-width: 1.2; stroke-linejoin: miter; stroke-linecap: square"/>
   </g>
   <g id="patch_6">
    <path d="M 55.139375 379.28875 
L 977.8425 379.28875 
" style="fill: none; stroke: #000000; stroke-width: 1.2; stroke-linejoin: miter; stroke-linecap: square"/>
   </g>
   <g id="text_14">
    <!-- MFT -->
    <g transform="translate(239.68 72.478728) scale(0.14 -0.14)">
     <defs>
      <path id="DejaVuSerif-Bold-4d" d="M 269 0 
L 269 378 
L 863 378 
L 863 4288 
L 269 4288 
L 269 4666 
L 2194 4666 
L 3525 1672 
L 4863 4666 
L 6784 4666 
L 6784 4288 
L 6188 4288 
L 6188 378 
L 6784 378 
L 6784 0 
L 4384 0 
L 4384 378 
L 4978 378 
L 4978 3938 
L 3531 684 
L 2741 684 
L 1300 3938 
L 1300 378 
L 1894 378 
L 1894 0 
L 269 0 
z
" transform="scale(0.015625)"/>
      <path id="DejaVuSerif-Bold-46" d="M 300 0 
L 300 378 
L 897 378 
L 897 4288 
L 300 4288 
L 300 4666 
L 4459 4666 
L 4459 3566 
L 4031 3566 
L 4031 4238 
L 2106 4238 
L 2106 2741 
L 3291 2741 
L 3291 3334 
L 3719 3334 
L 3719 1722 
L 3291 1722 
L 3291 2316 
L 2106 2316 
L 2106 378 
L 2841 378 
L 2841 0 
L 300 0 
z
" transform="scale(0.015625)"/>
      <path id="DejaVuSerif-Bold-54" d="M 1159 0 
L 1159 378 
L 1778 378 
L 1778 4238 
L 500 4238 
L 500 3500 
L 72 3500 
L 72 4666 
L 4697 4666 
L 4697 3500 
L 4275 3500 
L 4275 4238 
L 2988 4238 
L 2988 378 
L 3609 378 
L 3609 0 
L 1159 0 
z
" transform="scale(0.015625)"/>
     </defs>
     <use xlink:href="#DejaVuSerif-Bold-4d"/>
     <use xlink:href="#DejaVuSerif-Bold-46" transform="translate(110.693359 0)"/>
     <use xlink:href="#DejaVuSerif-Bold-54" transform="translate(181.689453 0)"/>
    </g>
   </g>
   <g id="text_15">
    <!-- MBT -->
    <g transform="translate(313.49625 72.478728) scale(0.14 -0.14)">
     <defs>
      <path id="DejaVuSerif-Bold-42" d="M 300 0 
L 300 378 
L 897 378 
L 897 4288 
L 300 4288 
L 300 4666 
L 3066 4666 
Q 3919 4666 4347 4378 
Q 4775 4091 4775 3513 
Q 4775 3097 4479 2853 
Q 4184 2609 3603 2547 
Q 4306 2481 4681 2172 
Q 5056 1863 5056 1350 
Q 5056 656 4532 328 
Q 4009 0 2894 0 
L 300 0 
z
M 2100 2719 
L 2509 2719 
Q 3047 2719 3306 2914 
Q 3566 3109 3566 3513 
Q 3566 3919 3314 4103 
Q 3063 4288 2509 4288 
L 2100 4288 
L 2100 2719 
z
M 2100 378 
L 2547 378 
Q 3144 378 3431 615 
Q 3719 853 3719 1350 
Q 3719 1850 3428 2097 
Q 3138 2344 2547 2344 
L 2100 2344 
L 2100 378 
z
" transform="scale(0.015625)"/>
     </defs>
     <use xlink:href="#DejaVuSerif-Bold-4d"/>
     <use xlink:href="#DejaVuSerif-Bold-42" transform="translate(110.693359 0)"/>
     <use xlink:href="#DejaVuSerif-Bold-54" transform="translate(195.214844 0)"/>
    </g>
   </g>
   <g id="text_16">
    <!-- MCT -->
    <g transform="translate(608.76125 72.478728) scale(0.14 -0.14)">
     <defs>
      <path id="DejaVuSerif-Bold-43" d="M 4769 1331 
Q 4584 609 4106 259 
Q 3628 -91 2822 -91 
Q 1641 -91 955 561 
Q 269 1213 269 2328 
Q 269 3447 955 4098 
Q 1641 4750 2822 4750 
Q 3238 4750 3688 4650 
Q 4138 4550 4641 4347 
L 4641 3200 
L 4244 3200 
Q 4122 3788 3800 4080 
Q 3478 4372 2950 4372 
Q 2269 4372 1937 3870 
Q 1606 3369 1606 2328 
Q 1606 1288 1937 788 
Q 2269 288 2956 288 
Q 3422 288 3717 547 
Q 4013 806 4147 1331 
L 4769 1331 
z
" transform="scale(0.015625)"/>
     </defs>
     <use xlink:href="#DejaVuSerif-Bold-4d"/>
     <use xlink:href="#DejaVuSerif-Bold-43" transform="translate(110.693359 0)"/>
     <use xlink:href="#DejaVuSerif-Bold-54" transform="translate(190.283203 0)"/>
    </g>
   </g>
   <g id="text_17">
    <!-- Gangetic Plain -->
    <g transform="translate(110.501563 65.950855) scale(0.13 -0.13)">
     <defs>
      <path id="DejaVuSerif-47" d="M 4097 3272 
Q 3988 3856 3641 4136 
Q 3294 4416 2675 4416 
Q 1869 4416 1472 3897 
Q 1075 3378 1075 2328 
Q 1075 1300 1484 772 
Q 1894 244 2688 244 
Q 3041 244 3362 331 
Q 3684 419 3975 594 
L 3975 1797 
L 3097 1797 
L 3097 2131 
L 4609 2131 
L 4609 391 
Q 4194 150 3714 29 
Q 3234 -91 2688 -91 
Q 1631 -91 995 570 
Q 359 1231 359 2328 
Q 359 3434 996 4092 
Q 1634 4750 2713 4750 
Q 3113 4750 3539 4658 
Q 3966 4566 4447 4378 
L 4447 3272 
L 4097 3272 
z
" transform="scale(0.015625)"/>
      <path id="DejaVuSerif-61" d="M 2547 1044 
L 2547 1747 
L 1806 1747 
Q 1378 1747 1168 1562 
Q 959 1378 959 997 
Q 959 650 1171 447 
Q 1384 244 1747 244 
Q 2106 244 2326 466 
Q 2547 688 2547 1044 
z
M 3122 2075 
L 3122 331 
L 3634 331 
L 3634 0 
L 2547 0 
L 2547 359 
Q 2356 128 2106 18 
Q 1856 -91 1522 -91 
Q 969 -91 644 203 
Q 319 497 319 997 
Q 319 1513 691 1797 
Q 1063 2081 1741 2081 
L 2547 2081 
L 2547 2309 
Q 2547 2688 2317 2895 
Q 2088 3103 1672 3103 
Q 1328 3103 1125 2947 
Q 922 2791 872 2484 
L 575 2484 
L 575 3156 
Q 875 3284 1158 3348 
Q 1441 3413 1709 3413 
Q 2400 3413 2761 3070 
Q 3122 2728 3122 2075 
z
" transform="scale(0.015625)"/>
      <path id="DejaVuSerif-6e" d="M 263 0 
L 263 331 
L 781 331 
L 781 2988 
L 231 2988 
L 231 3322 
L 1356 3322 
L 1356 2731 
Q 1516 3069 1770 3241 
Q 2025 3413 2363 3413 
Q 2913 3413 3172 3097 
Q 3431 2781 3431 2113 
L 3431 331 
L 3944 331 
L 3944 0 
L 2356 0 
L 2356 331 
L 2853 331 
L 2853 1931 
Q 2853 2541 2703 2767 
Q 2553 2994 2175 2994 
Q 1775 2994 1565 2701 
Q 1356 2409 1356 1850 
L 1356 331 
L 1856 331 
L 1856 0 
L 263 0 
z
" transform="scale(0.015625)"/>
      <path id="DejaVuSerif-67" d="M 3359 2988 
L 3359 72 
Q 3359 -644 2965 -1033 
Q 2572 -1422 1844 -1422 
Q 1516 -1422 1216 -1362 
Q 916 -1303 641 -1184 
L 641 -488 
L 941 -488 
Q 997 -813 1206 -963 
Q 1416 -1113 1806 -1113 
Q 2313 -1113 2548 -827 
Q 2784 -541 2784 72 
L 2784 519 
Q 2616 206 2355 57 
Q 2094 -91 1709 -91 
Q 1097 -91 708 395 
Q 319 881 319 1663 
Q 319 2444 706 2928 
Q 1094 3413 1709 3413 
Q 2094 3413 2355 3264 
Q 2616 3116 2784 2803 
L 2784 3322 
L 3909 3322 
L 3909 2988 
L 3359 2988 
z
M 2784 1825 
Q 2784 2422 2554 2737 
Q 2325 3053 1888 3053 
Q 1444 3053 1217 2703 
Q 991 2353 991 1663 
Q 991 975 1217 622 
Q 1444 269 1888 269 
Q 2325 269 2554 583 
Q 2784 897 2784 1497 
L 2784 1825 
z
" transform="scale(0.015625)"/>
      <path id="DejaVuSerif-69" d="M 622 4353 
Q 622 4497 726 4603 
Q 831 4709 978 4709 
Q 1122 4709 1226 4603 
Q 1331 4497 1331 4353 
Q 1331 4206 1228 4103 
Q 1125 4000 978 4000 
Q 831 4000 726 4103 
Q 622 4206 622 4353 
z
M 1356 331 
L 1900 331 
L 1900 0 
L 231 0 
L 231 331 
L 781 331 
L 781 2988 
L 231 2988 
L 231 3322 
L 1356 3322 
L 1356 331 
z
" transform="scale(0.015625)"/>
      <path id="DejaVuSerif-63" d="M 3291 997 
Q 3169 466 2822 187 
Q 2475 -91 1925 -91 
Q 1200 -91 759 389 
Q 319 869 319 1663 
Q 319 2459 759 2936 
Q 1200 3413 1925 3413 
Q 2241 3413 2553 3339 
Q 2866 3266 3181 3116 
L 3181 2266 
L 2847 2266 
Q 2781 2703 2561 2903 
Q 2341 3103 1931 3103 
Q 1466 3103 1228 2742 
Q 991 2381 991 1663 
Q 991 944 1227 581 
Q 1463 219 1931 219 
Q 2303 219 2525 412 
Q 2747 606 2828 997 
L 3291 997 
z
" transform="scale(0.015625)"/>
      <path id="DejaVuSerif-50" d="M 1581 2375 
L 2406 2375 
Q 2872 2375 3115 2626 
Q 3359 2878 3359 3353 
Q 3359 3831 3115 4081 
Q 2872 4331 2406 4331 
L 1581 4331 
L 1581 2375 
z
M 353 0 
L 353 331 
L 947 331 
L 947 4331 
L 353 4331 
L 353 4666 
L 2559 4666 
Q 3259 4666 3668 4311 
Q 4078 3956 4078 3353 
Q 4078 2753 3668 2397 
Q 3259 2041 2559 2041 
L 1581 2041 
L 1581 331 
L 2303 331 
L 2303 0 
L 353 0 
z
" transform="scale(0.015625)"/>
      <path id="DejaVuSerif-6c" d="M 1313 331 
L 1856 331 
L 1856 0 
L 184 0 
L 184 331 
L 738 331 
L 738 4531 
L 184 4531 
L 184 4863 
L 1313 4863 
L 1313 331 
z
" transform="scale(0.015625)"/>
     </defs>
     <use xlink:href="#DejaVuSerif-47"/>
     <use xlink:href="#DejaVuSerif-61" transform="translate(79.882812 0)"/>
     <use xlink:href="#DejaVuSerif-6e" transform="translate(139.501953 0)"/>
     <use xlink:href="#DejaVuSerif-67" transform="translate(203.90625 0)"/>
     <use xlink:href="#DejaVuSerif-65" transform="translate(267.919922 0)"/>
     <use xlink:href="#DejaVuSerif-74" transform="translate(327.099609 0)"/>
     <use xlink:href="#DejaVuSerif-69" transform="translate(367.285156 0)"/>
     <use xlink:href="#DejaVuSerif-63" transform="translate(399.267578 0)"/>
     <use xlink:href="#DejaVuSerif-20" transform="translate(455.273438 0)"/>
     <use xlink:href="#DejaVuSerif-50" transform="translate(487.060547 0)"/>
     <use xlink:href="#DejaVuSerif-6c" transform="translate(554.345703 0)"/>
     <use xlink:href="#DejaVuSerif-61" transform="translate(586.328125 0)"/>
     <use xlink:href="#DejaVuSerif-69" transform="translate(645.947266 0)"/>
     <use xlink:href="#DejaVuSerif-6e" transform="translate(677.929688 0)"/>
    </g>
   </g>
   <g id="text_18">
    <!-- Lesser Himalaya -->
    <g transform="translate(331.950313 39.839364) scale(0.13 -0.13)">
     <defs>
      <path id="DejaVuSerif-4c" d="M 353 0 
L 353 331 
L 947 331 
L 947 4331 
L 353 4331 
L 353 4666 
L 2175 4666 
L 2175 4331 
L 1581 4331 
L 1581 384 
L 3713 384 
L 3713 1166 
L 4097 1166 
L 4097 0 
L 353 0 
z
" transform="scale(0.015625)"/>
      <path id="DejaVuSerif-73" d="M 359 184 
L 359 959 
L 691 959 
Q 703 588 923 403 
Q 1144 219 1575 219 
Q 1963 219 2166 364 
Q 2369 509 2369 788 
Q 2369 1006 2220 1140 
Q 2072 1275 1594 1428 
L 1178 1569 
Q 750 1706 558 1912 
Q 366 2119 366 2438 
Q 366 2894 700 3153 
Q 1034 3413 1625 3413 
Q 1888 3413 2178 3344 
Q 2469 3275 2778 3144 
L 2778 2419 
L 2447 2419 
Q 2434 2741 2221 2922 
Q 2009 3103 1644 3103 
Q 1281 3103 1095 2975 
Q 909 2847 909 2591 
Q 909 2381 1050 2254 
Q 1191 2128 1613 1997 
L 2069 1856 
Q 2541 1709 2748 1489 
Q 2956 1269 2956 922 
Q 2956 450 2595 179 
Q 2234 -91 1600 -91 
Q 1278 -91 972 -22 
Q 666 47 359 184 
z
" transform="scale(0.015625)"/>
      <path id="DejaVuSerif-48" d="M 353 0 
L 353 331 
L 947 331 
L 947 4331 
L 353 4331 
L 353 4666 
L 2175 4666 
L 2175 4331 
L 1581 4331 
L 1581 2719 
L 4000 2719 
L 4000 4331 
L 3406 4331 
L 3406 4666 
L 5228 4666 
L 5228 4331 
L 4634 4331 
L 4634 331 
L 5228 331 
L 5228 0 
L 3406 0 
L 3406 331 
L 4000 331 
L 4000 2338 
L 1581 2338 
L 1581 331 
L 2175 331 
L 2175 0 
L 353 0 
z
" transform="scale(0.015625)"/>
      <path id="DejaVuSerif-79" d="M 1381 -609 
L 1600 -56 
L 359 2988 
L -19 2988 
L -19 3322 
L 1509 3322 
L 1509 2988 
L 978 2988 
L 1913 703 
L 2847 2988 
L 2350 2988 
L 2350 3322 
L 3597 3322 
L 3597 2988 
L 3225 2988 
L 1703 -750 
Q 1547 -1138 1356 -1280 
Q 1166 -1422 819 -1422 
Q 672 -1422 517 -1397 
Q 363 -1372 206 -1325 
L 206 -691 
L 500 -691 
Q 519 -903 608 -995 
Q 697 -1088 884 -1088 
Q 1056 -1088 1161 -992 
Q 1266 -897 1381 -609 
z
" transform="scale(0.015625)"/>
     </defs>
     <use xlink:href="#DejaVuSerif-4c"/>
     <use xlink:href="#DejaVuSerif-65" transform="translate(66.40625 0)"/>
     <use xlink:href="#DejaVuSerif-73" transform="translate(125.585938 0)"/>
     <use xlink:href="#DejaVuSerif-73" transform="translate(176.904297 0)"/>
     <use xlink:href="#DejaVuSerif-65" transform="translate(228.222656 0)"/>
     <use xlink:href="#DejaVuSerif-72" transform="translate(287.402344 0)"/>
     <use xlink:href="#DejaVuSerif-20" transform="translate(335.205078 0)"/>
     <use xlink:href="#DejaVuSerif-48" transform="translate(366.992188 0)"/>
     <use xlink:href="#DejaVuSerif-69" transform="translate(454.199219 0)"/>
     <use xlink:href="#DejaVuSerif-6d" transform="translate(486.181641 0)"/>
     <use xlink:href="#DejaVuSerif-61" transform="translate(581.005859 0)"/>
     <use xlink:href="#DejaVuSerif-6c" transform="translate(640.625 0)"/>
     <use xlink:href="#DejaVuSerif-61" transform="translate(672.607422 0)"/>
     <use xlink:href="#DejaVuSerif-79" transform="translate(732.226562 0)"/>
     <use xlink:href="#DejaVuSerif-61" transform="translate(788.720703 0)"/>
    </g>
   </g>
   <g id="text_19">
    <!-- Higher Himalaya -->
    <g transform="translate(654.896406 33.311491) scale(0.13 -0.13)">
     <use xlink:href="#DejaVuSerif-48"/>
     <use xlink:href="#DejaVuSerif-69" transform="translate(87.207031 0)"/>
     <use xlink:href="#DejaVuSerif-67" transform="translate(119.189453 0)"/>
     <use xlink:href="#DejaVuSerif-68" transform="translate(183.203125 0)"/>
     <use xlink:href="#DejaVuSerif-65" transform="translate(247.607422 0)"/>
     <use xlink:href="#DejaVuSerif-72" transform="translate(306.787109 0)"/>
     <use xlink:href="#DejaVuSerif-20" transform="translate(354.589844 0)"/>
     <use xlink:href="#DejaVuSerif-48" transform="translate(386.376953 0)"/>
     <use xlink:href="#DejaVuSerif-69" transform="translate(473.583984 0)"/>
     <use xlink:href="#DejaVuSerif-6d" transform="translate(505.566406 0)"/>
     <use xlink:href="#DejaVuSerif-61" transform="translate(600.390625 0)"/>
     <use xlink:href="#DejaVuSerif-6c" transform="translate(660.009766 0)"/>
     <use xlink:href="#DejaVuSerif-61" transform="translate(691.992188 0)"/>
     <use xlink:href="#DejaVuSerif-79" transform="translate(751.611328 0)"/>
     <use xlink:href="#DejaVuSerif-61" transform="translate(808.105469 0)"/>
    </g>
   </g>
   <g id="text_20">
    <!-- INDIA PLATE -->
    <g style="fill: #ffffff" transform="translate(331.950313 248.731294) scale(0.16 -0.16)">
     <defs>
      <path id="DejaVuSerif-Bold-49" d="M 300 0 
L 300 378 
L 897 378 
L 897 4288 
L 300 4288 
L 300 4666 
L 2700 4666 
L 2700 4288 
L 2100 4288 
L 2100 378 
L 2700 378 
L 2700 0 
L 300 0 
z
" transform="scale(0.015625)"/>
      <path id="DejaVuSerif-Bold-4e" d="M 281 0 
L 281 378 
L 878 378 
L 878 4288 
L 281 4288 
L 281 4666 
L 1741 4666 
L 4556 1363 
L 4556 4288 
L 3963 4288 
L 3963 4666 
L 5594 4666 
L 5594 4288 
L 4997 4288 
L 4997 0 
L 4178 0 
L 1319 3372 
L 1319 378 
L 1913 378 
L 1913 0 
L 281 0 
z
" transform="scale(0.015625)"/>
      <path id="DejaVuSerif-Bold-44" d="M 2100 378 
L 2534 378 
Q 3266 378 3605 847 
Q 3944 1316 3944 2338 
Q 3944 3353 3606 3820 
Q 3269 4288 2534 4288 
L 2100 4288 
L 2100 378 
z
M 300 0 
L 300 378 
L 897 378 
L 897 4288 
L 300 4288 
L 300 4666 
L 2694 4666 
Q 3950 4666 4615 4066 
Q 5281 3466 5281 2338 
Q 5281 1203 4614 601 
Q 3947 0 2694 0 
L 300 0 
z
" transform="scale(0.015625)"/>
      <path id="DejaVuSerif-Bold-41" d="M -50 0 
L -50 378 
L 331 378 
L 2088 4666 
L 2834 4666 
L 4594 378 
L 5038 378 
L 5038 0 
L 2853 0 
L 2853 378 
L 3309 378 
L 2925 1331 
L 1172 1331 
L 781 378 
L 1338 378 
L 1338 0 
L -50 0 
z
M 1325 1709 
L 2772 1709 
L 2053 3494 
L 1325 1709 
z
" transform="scale(0.015625)"/>
      <path id="DejaVuSerif-Bold-20" transform="scale(0.015625)"/>
      <path id="DejaVuSerif-Bold-50" d="M 300 0 
L 300 378 
L 897 378 
L 897 4288 
L 300 4288 
L 300 4666 
L 2956 4666 
Q 3734 4666 4193 4295 
Q 4653 3925 4653 3303 
Q 4653 2678 4192 2304 
Q 3731 1931 2956 1931 
L 2100 1931 
L 2100 378 
L 2853 378 
L 2853 0 
L 300 0 
z
M 2100 2309 
L 2450 2309 
Q 2856 2309 3098 2579 
Q 3341 2850 3341 3303 
Q 3341 3753 3100 4020 
Q 2859 4288 2450 4288 
L 2100 4288 
L 2100 2309 
z
" transform="scale(0.015625)"/>
      <path id="DejaVuSerif-Bold-4c" d="M 300 0 
L 300 378 
L 897 378 
L 897 4288 
L 300 4288 
L 300 4666 
L 2700 4666 
L 2700 4288 
L 2100 4288 
L 2100 428 
L 3938 428 
L 3938 1166 
L 4359 1166 
L 4359 0 
L 300 0 
z
" transform="scale(0.015625)"/>
      <path id="DejaVuSerif-Bold-45" d="M 300 0 
L 300 378 
L 897 378 
L 897 4288 
L 300 4288 
L 300 4666 
L 4494 4666 
L 4494 3566 
L 4063 3566 
L 4063 4238 
L 2100 4238 
L 2100 2741 
L 3322 2741 
L 3322 3334 
L 3750 3334 
L 3750 1722 
L 3322 1722 
L 3322 2316 
L 2100 2316 
L 2100 428 
L 4122 428 
L 4122 1100 
L 4550 1100 
L 4550 0 
L 300 0 
z
" transform="scale(0.015625)"/>
     </defs>
     <use xlink:href="#DejaVuSerif-Bold-49"/>
     <use xlink:href="#DejaVuSerif-Bold-4e" transform="translate(46.777344 0)"/>
     <use xlink:href="#DejaVuSerif-Bold-44" transform="translate(138.183594 0)"/>
     <use xlink:href="#DejaVuSerif-Bold-49" transform="translate(224.902344 0)"/>
     <use xlink:href="#DejaVuSerif-Bold-41" transform="translate(271.679688 0)"/>
     <use xlink:href="#DejaVuSerif-Bold-20" transform="translate(349.267578 0)"/>
     <use xlink:href="#DejaVuSerif-Bold-50" transform="translate(384.082031 0)"/>
     <use xlink:href="#DejaVuSerif-Bold-4c" transform="translate(459.277344 0)"/>
     <use xlink:href="#DejaVuSerif-Bold-41" transform="translate(529.589844 0)"/>
     <use xlink:href="#DejaVuSerif-Bold-54" transform="translate(601.677734 0)"/>
     <use xlink:href="#DejaVuSerif-Bold-45" transform="translate(676.091797 0)"/>
    </g>
   </g>
   <g id="text_21">
    <!-- EURASIAN PLATE -->
    <g transform="translate(701.031563 118.173838) scale(0.16 -0.16)">
     <defs>
      <path id="DejaVuSerif-Bold-55" d="M 813 4288 
L 219 4288 
L 219 4666 
L 2619 4666 
L 2619 4288 
L 2022 4288 
L 2022 1953 
Q 2022 1081 2294 732 
Q 2566 384 3225 384 
Q 3869 384 4139 736 
Q 4409 1088 4409 1953 
L 4409 4288 
L 3816 4288 
L 3816 4666 
L 5441 4666 
L 5441 4288 
L 4844 4288 
L 4844 1888 
Q 4844 819 4381 364 
Q 3919 -91 2828 -91 
Q 1744 -91 1278 368 
Q 813 828 813 1894 
L 813 4288 
z
" transform="scale(0.015625)"/>
      <path id="DejaVuSerif-Bold-52" d="M 3397 2278 
Q 3675 2238 3865 2094 
Q 4056 1950 4197 1678 
L 4878 378 
L 5356 378 
L 5356 0 
L 3822 0 
L 3078 1409 
Q 2863 1847 2711 1967 
Q 2559 2088 2291 2088 
L 2100 2088 
L 2100 378 
L 2700 378 
L 2700 0 
L 300 0 
L 300 378 
L 897 378 
L 897 4288 
L 300 4288 
L 300 4666 
L 2963 4666 
Q 3775 4666 4217 4339 
Q 4659 4013 4659 3413 
Q 4659 2925 4345 2642 
Q 4031 2359 3397 2278 
z
M 2100 2463 
L 2509 2463 
Q 2947 2463 3183 2700 
Q 3419 2938 3419 3378 
Q 3419 3819 3183 4053 
Q 2947 4288 2509 4288 
L 2100 4288 
L 2100 2463 
z
" transform="scale(0.015625)"/>
      <path id="DejaVuSerif-Bold-53" d="M 494 225 
L 494 1331 
L 891 1331 
Q 981 806 1318 547 
Q 1656 288 2253 288 
Q 2738 288 2991 472 
Q 3244 656 3244 1013 
Q 3244 1294 3072 1450 
Q 2900 1606 2363 1741 
L 1663 1913 
Q 978 2088 700 2398 
Q 422 2709 422 3284 
Q 422 3978 883 4364 
Q 1344 4750 2175 4750 
Q 2584 4750 3026 4681 
Q 3469 4613 3944 4475 
L 3944 3444 
L 3547 3444 
Q 3456 3925 3150 4148 
Q 2844 4372 2278 4372 
Q 1816 4372 1580 4211 
Q 1344 4050 1344 3731 
Q 1344 3441 1506 3289 
Q 1669 3138 2303 2975 
L 3003 2803 
Q 3653 2641 3945 2297 
Q 4238 1953 4238 1350 
Q 4238 644 3750 276 
Q 3263 -91 2316 -91 
Q 1859 -91 1409 -12 
Q 959 66 494 225 
z
" transform="scale(0.015625)"/>
     </defs>
     <use xlink:href="#DejaVuSerif-Bold-45"/>
     <use xlink:href="#DejaVuSerif-Bold-55" transform="translate(76.220703 0)"/>
     <use xlink:href="#DejaVuSerif-Bold-52" transform="translate(163.427734 0)"/>
     <use xlink:href="#DejaVuSerif-Bold-41" transform="translate(246.533203 0)"/>
     <use xlink:href="#DejaVuSerif-Bold-53" transform="translate(324.121094 0)"/>
     <use xlink:href="#DejaVuSerif-Bold-49" transform="translate(396.337891 0)"/>
     <use xlink:href="#DejaVuSerif-Bold-41" transform="translate(443.115234 0)"/>
     <use xlink:href="#DejaVuSerif-Bold-4e" transform="translate(520.703125 0)"/>
     <use xlink:href="#DejaVuSerif-Bold-20" transform="translate(612.109375 0)"/>
     <use xlink:href="#DejaVuSerif-Bold-50" transform="translate(646.923828 0)"/>
     <use xlink:href="#DejaVuSerif-Bold-4c" transform="translate(722.119141 0)"/>
     <use xlink:href="#DejaVuSerif-Bold-41" transform="translate(792.431641 0)"/>
     <use xlink:href="#DejaVuSerif-Bold-54" transform="translate(864.519531 0)"/>
     <use xlink:href="#DejaVuSerif-Bold-45" transform="translate(938.933594 0)"/>
    </g>
   </g>
   <g id="text_22">
    <!-- Kathmandu -->
    <g transform="translate(462.864688 65.950855) scale(0.12 -0.12)">
     <defs>
      <path id="DejaVuSerif-4b" d="M 353 0 
L 353 331 
L 947 331 
L 947 4331 
L 353 4331 
L 353 4666 
L 2175 4666 
L 2175 4331 
L 1581 4331 
L 1581 2566 
L 3591 4331 
L 3084 4331 
L 3084 4666 
L 4634 4666 
L 4634 4331 
L 4109 4331 
L 2106 2572 
L 4347 331 
L 4878 331 
L 4878 0 
L 3794 0 
L 1581 2216 
L 1581 331 
L 2175 331 
L 2175 0 
L 353 0 
z
" transform="scale(0.015625)"/>
      <path id="DejaVuSerif-64" d="M 3359 331 
L 3909 331 
L 3909 0 
L 2784 0 
L 2784 519 
Q 2616 206 2355 57 
Q 2094 -91 1709 -91 
Q 1097 -91 708 395 
Q 319 881 319 1663 
Q 319 2444 706 2928 
Q 1094 3413 1709 3413 
Q 2094 3413 2355 3264 
Q 2616 3116 2784 2803 
L 2784 4531 
L 2241 4531 
L 2241 4863 
L 3359 4863 
L 3359 331 
z
M 2784 1497 
L 2784 1825 
Q 2784 2422 2554 2737 
Q 2325 3053 1888 3053 
Q 1444 3053 1217 2703 
Q 991 2353 991 1663 
Q 991 975 1217 622 
Q 1444 269 1888 269 
Q 2325 269 2554 583 
Q 2784 897 2784 1497 
z
" transform="scale(0.015625)"/>
     </defs>
     <use xlink:href="#DejaVuSerif-4b"/>
     <use xlink:href="#DejaVuSerif-61" transform="translate(74.707031 0)"/>
     <use xlink:href="#DejaVuSerif-74" transform="translate(134.326172 0)"/>
     <use xlink:href="#DejaVuSerif-68" transform="translate(174.511719 0)"/>
     <use xlink:href="#DejaVuSerif-6d" transform="translate(238.916016 0)"/>
     <use xlink:href="#DejaVuSerif-61" transform="translate(333.740234 0)"/>
     <use xlink:href="#DejaVuSerif-6e" transform="translate(393.359375 0)"/>
     <use xlink:href="#DejaVuSerif-64" transform="translate(457.763672 0)"/>
     <use xlink:href="#DejaVuSerif-75" transform="translate(521.777344 0)"/>
    </g>
   </g>
   <g id="text_23">
    <!-- 100 km -->
    <g transform="translate(816.752344 372.760877) scale(0.12 -0.12)">
     <use xlink:href="#DejaVuSerif-31"/>
     <use xlink:href="#DejaVuSerif-30" transform="translate(63.623047 0)"/>
     <use xlink:href="#DejaVuSerif-30" transform="translate(127.246094 0)"/>
     <use xlink:href="#DejaVuSerif-20" transform="translate(190.869141 0)"/>
     <use xlink:href="#DejaVuSerif-6b" transform="translate(222.65625 0)"/>
     <use xlink:href="#DejaVuSerif-6d" transform="translate(283.251953 0)"/>
    </g>
   </g>
   <g id="PathCollection_1">
    <defs>
     <path id="m093e6e08c0" d="M 0 3.535534 
C 0.937635 3.535534 1.836992 3.163008 2.5 2.5 
C 3.163008 1.836992 3.535534 0.937635 3.535534 0 
C 3.535534 -0.937635 3.163008 -1.836992 2.5 -2.5 
C 1.836992 -3.163008 0.937635 -3.535534 0 -3.535534 
C -0.937635 -3.535534 -1.836992 -3.163008 -2.5 -2.5 
C -3.163008 -1.836992 -3.535534 -0.937635 -3.535534 0 
C -3.535534 0.937635 -3.163008 1.836992 -2.5 2.5 
C -1.836992 3.163008 -0.937635 3.535534 0 3.535534 
z
" style="stroke: #000000; stroke-opacity: 0.9; stroke-width: 0.4"/>
    </defs>
    <g clip-path="url(#p209ed8d985)">
     <use xlink:href="#m093e6e08c0" x="660.918816" y="179.6335" style="fill: #d32f2f; fill-opacity: 0.9; stroke: #000000; stroke-opacity: 0.9; stroke-width: 0.4"/>
     <use xlink:href="#m093e6e08c0" x="615.425305" y="175.615006" style="fill: #d32f2f; fill-opacity: 0.9; stroke: #000000; stroke-opacity: 0.9; stroke-width: 0.4"/>
     <use xlink:href="#m093e6e08c0" x="448.550439" y="190.064629" style="fill: #d32f2f; fill-opacity: 0.9; stroke: #000000; stroke-opacity: 0.9; stroke-width: 0.4"/>
     <use xlink:href="#m093e6e08c0" x="562.007229" y="158.846292" style="fill: #d32f2f; fill-opacity: 0.9; stroke: #000000; stroke-opacity: 0.9; stroke-width: 0.4"/>
     <use xlink:href="#m093e6e08c0" x="608.490785" y="197.787177" style="fill: #d32f2f; fill-opacity: 0.9; stroke: #000000; stroke-opacity: 0.9; stroke-width: 0.4"/>
     <use xlink:href="#m093e6e08c0" x="509.472078" y="170.522843" style="fill: #d32f2f; fill-opacity: 0.9; stroke: #000000; stroke-opacity: 0.9; stroke-width: 0.4"/>
     <use xlink:href="#m093e6e08c0" x="582.225163" y="190.323907" style="fill: #d32f2f; fill-opacity: 0.9; stroke: #000000; stroke-opacity: 0.9; stroke-width: 0.4"/>
     <use xlink:href="#m093e6e08c0" x="570.638739" y="201.85007" style="fill: #d32f2f; fill-opacity: 0.9; stroke: #000000; stroke-opacity: 0.9; stroke-width: 0.4"/>
     <use xlink:href="#m093e6e08c0" x="562.942871" y="193.035559" style="fill: #d32f2f; fill-opacity: 0.9; stroke: #000000; stroke-opacity: 0.9; stroke-width: 0.4"/>
     <use xlink:href="#m093e6e08c0" x="549.737761" y="199.209372" style="fill: #d32f2f; fill-opacity: 0.9; stroke: #000000; stroke-opacity: 0.9; stroke-width: 0.4"/>
     <use xlink:href="#m093e6e08c0" x="594.590463" y="187.617955" style="fill: #d32f2f; fill-opacity: 0.9; stroke: #000000; stroke-opacity: 0.9; stroke-width: 0.4"/>
     <use xlink:href="#m093e6e08c0" x="651.429801" y="190.094159" style="fill: #d32f2f; fill-opacity: 0.9; stroke: #000000; stroke-opacity: 0.9; stroke-width: 0.4"/>
     <use xlink:href="#m093e6e08c0" x="491.388565" y="177.339149" style="fill: #d32f2f; fill-opacity: 0.9; stroke: #000000; stroke-opacity: 0.9; stroke-width: 0.4"/>
     <use xlink:href="#m093e6e08c0" x="638.52943" y="172.384832" style="fill: #d32f2f; fill-opacity: 0.9; stroke: #000000; stroke-opacity: 0.9; stroke-width: 0.4"/>
     <use xlink:href="#m093e6e08c0" x="579.502713" y="186.339588" style="fill: #d32f2f; fill-opacity: 0.9; stroke: #000000; stroke-opacity: 0.9; stroke-width: 0.4"/>
     <use xlink:href="#m093e6e08c0" x="595.484483" y="183.959886" style="fill: #d32f2f; fill-opacity: 0.9; stroke: #000000; stroke-opacity: 0.9; stroke-width: 0.4"/>
     <use xlink:href="#m093e6e08c0" x="478.726381" y="177.791055" style="fill: #d32f2f; fill-opacity: 0.9; stroke: #000000; stroke-opacity: 0.9; stroke-width: 0.4"/>
     <use xlink:href="#m093e6e08c0" x="572.601391" y="194.025352" style="fill: #d32f2f; fill-opacity: 0.9; stroke: #000000; stroke-opacity: 0.9; stroke-width: 0.4"/>
     <use xlink:href="#m093e6e08c0" x="672.209048" y="169.58423" style="fill: #d32f2f; fill-opacity: 0.9; stroke: #000000; stroke-opacity: 0.9; stroke-width: 0.4"/>
     <use xlink:href="#m093e6e08c0" x="482.918946" y="166.958758" style="fill: #d32f2f; fill-opacity: 0.9; stroke: #000000; stroke-opacity: 0.9; stroke-width: 0.4"/>
     <use xlink:href="#m093e6e08c0" x="416.637609" y="179.465717" style="fill: #d32f2f; fill-opacity: 0.9; stroke: #000000; stroke-opacity: 0.9; stroke-width: 0.4"/>
     <use xlink:href="#m093e6e08c0" x="433.936889" y="136.555603" style="fill: #d32f2f; fill-opacity: 0.9; stroke: #000000; stroke-opacity: 0.9; stroke-width: 0.4"/>
     <use xlink:href="#m093e6e08c0" x="582.266395" y="165.4854" style="fill: #d32f2f; fill-opacity: 0.9; stroke: #000000; stroke-opacity: 0.9; stroke-width: 0.4"/>
     <use xlink:href="#m093e6e08c0" x="738.675438" y="185.651267" style="fill: #d32f2f; fill-opacity: 0.9; stroke: #000000; stroke-opacity: 0.9; stroke-width: 0.4"/>
     <use xlink:href="#m093e6e08c0" x="645.572768" y="190.545369" style="fill: #d32f2f; fill-opacity: 0.9; stroke: #000000; stroke-opacity: 0.9; stroke-width: 0.4"/>
     <use xlink:href="#m093e6e08c0" x="686.092793" y="187.999534" style="fill: #d32f2f; fill-opacity: 0.9; stroke: #000000; stroke-opacity: 0.9; stroke-width: 0.4"/>
     <use xlink:href="#m093e6e08c0" x="569.944917" y="193.278233" style="fill: #d32f2f; fill-opacity: 0.9; stroke: #000000; stroke-opacity: 0.9; stroke-width: 0.4"/>
     <use xlink:href="#m093e6e08c0" x="665.820944" y="161.346868" style="fill: #d32f2f; fill-opacity: 0.9; stroke: #000000; stroke-opacity: 0.9; stroke-width: 0.4"/>
     <use xlink:href="#m093e6e08c0" x="542.603584" y="197.118211" style="fill: #d32f2f; fill-opacity: 0.9; stroke: #000000; stroke-opacity: 0.9; stroke-width: 0.4"/>
     <use xlink:href="#m093e6e08c0" x="607.890527" y="185.041232" style="fill: #d32f2f; fill-opacity: 0.9; stroke: #000000; stroke-opacity: 0.9; stroke-width: 0.4"/>
     <use xlink:href="#m093e6e08c0" x="542.893741" y="193.818098" style="fill: #d32f2f; fill-opacity: 0.9; stroke: #000000; stroke-opacity: 0.9; stroke-width: 0.4"/>
     <use xlink:href="#m093e6e08c0" x="522.078162" y="162.96452" style="fill: #d32f2f; fill-opacity: 0.9; stroke: #000000; stroke-opacity: 0.9; stroke-width: 0.4"/>
     <use xlink:href="#m093e6e08c0" x="572.422122" y="211.233026" style="fill: #d32f2f; fill-opacity: 0.9; stroke: #000000; stroke-opacity: 0.9; stroke-width: 0.4"/>
     <use xlink:href="#m093e6e08c0" x="527.479076" y="190.551611" style="fill: #d32f2f; fill-opacity: 0.9; stroke: #000000; stroke-opacity: 0.9; stroke-width: 0.4"/>
     <use xlink:href="#m093e6e08c0" x="659.21267" y="185.83992" style="fill: #d32f2f; fill-opacity: 0.9; stroke: #000000; stroke-opacity: 0.9; stroke-width: 0.4"/>
    </g>
   </g>
   <g id="PathCollection_2">
    <defs>
     <path id="m3a4c5f12f5" d="M 0 3.535534 
C 0.937635 3.535534 1.836992 3.163008 2.5 2.5 
C 3.163008 1.836992 3.535534 0.937635 3.535534 0 
C 3.535534 -0.937635 3.163008 -1.836992 2.5 -2.5 
C 1.836992 -3.163008 0.937635 -3.535534 0 -3.535534 
C -0.937635 -3.535534 -1.836992 -3.163008 -2.5 -2.5 
C -3.163008 -1.836992 -3.535534 -0.937635 -3.535534 0 
C -3.535534 0.937635 -3.163008 1.836992 -2.5 2.5 
C -1.836992 3.163008 -0.937635 3.535534 0 3.535534 
z
" style="stroke: #000000; stroke-opacity: 0.9; stroke-width: 0.4"/>
    </defs>
    <g clip-path="url(#p209ed8d985)">
     <use xlink:href="#m3a4c5f12f5" x="770.740412" y="205.170299" style="fill: #696969; fill-opacity: 0.9; stroke: #000000; stroke-opacity: 0.9; stroke-width: 0.4"/>
     <use xlink:href="#m3a4c5f12f5" x="781.188843" y="241.735846" style="fill: #696969; fill-opacity: 0.9; stroke: #000000; stroke-opacity: 0.9; stroke-width: 0.4"/>
     <use xlink:href="#m3a4c5f12f5" x="731.237918" y="226.808409" style="fill: #696969; fill-opacity: 0.9; stroke: #000000; stroke-opacity: 0.9; stroke-width: 0.4"/>
     <use xlink:href="#m3a4c5f12f5" x="820.176339" y="207.553508" style="fill: #696969; fill-opacity: 0.9; stroke: #000000; stroke-opacity: 0.9; stroke-width: 0.4"/>
     <use xlink:href="#m3a4c5f12f5" x="770.400662" y="280.182902" style="fill: #696969; fill-opacity: 0.9; stroke: #000000; stroke-opacity: 0.9; stroke-width: 0.4"/>
     <use xlink:href="#m3a4c5f12f5" x="929.319466" y="226.080211" style="fill: #696969; fill-opacity: 0.9; stroke: #000000; stroke-opacity: 0.9; stroke-width: 0.4"/>
     <use xlink:href="#m3a4c5f12f5" x="635.828083" y="278.954219" style="fill: #696969; fill-opacity: 0.9; stroke: #000000; stroke-opacity: 0.9; stroke-width: 0.4"/>
     <use xlink:href="#m3a4c5f12f5" x="792.977132" y="253.246213" style="fill: #696969; fill-opacity: 0.9; stroke: #000000; stroke-opacity: 0.9; stroke-width: 0.4"/>
     <use xlink:href="#m3a4c5f12f5" x="670.018954" y="216.881765" style="fill: #696969; fill-opacity: 0.9; stroke: #000000; stroke-opacity: 0.9; stroke-width: 0.4"/>
     <use xlink:href="#m3a4c5f12f5" x="688.2607" y="232.917307" style="fill: #696969; fill-opacity: 0.9; stroke: #000000; stroke-opacity: 0.9; stroke-width: 0.4"/>
     <use xlink:href="#m3a4c5f12f5" x="893.698219" y="239.595885" style="fill: #696969; fill-opacity: 0.9; stroke: #000000; stroke-opacity: 0.9; stroke-width: 0.4"/>
     <use xlink:href="#m3a4c5f12f5" x="875.962356" y="236.876255" style="fill: #696969; fill-opacity: 0.9; stroke: #000000; stroke-opacity: 0.9; stroke-width: 0.4"/>
     <use xlink:href="#m3a4c5f12f5" x="610.150067" y="206.999684" style="fill: #696969; fill-opacity: 0.9; stroke: #000000; stroke-opacity: 0.9; stroke-width: 0.4"/>
     <use xlink:href="#m3a4c5f12f5" x="730.7224" y="210.691278" style="fill: #696969; fill-opacity: 0.9; stroke: #000000; stroke-opacity: 0.9; stroke-width: 0.4"/>
     <use xlink:href="#m3a4c5f12f5" x="742.306078" y="249.704441" style="fill: #696969; fill-opacity: 0.9; stroke: #000000; stroke-opacity: 0.9; stroke-width: 0.4"/>
     <use xlink:href="#m3a4c5f12f5" x="589.811725" y="221.498556" style="fill: #696969; fill-opacity: 0.9; stroke: #000000; stroke-opacity: 0.9; stroke-width: 0.4"/>
     <use xlink:href="#m3a4c5f12f5" x="743.562234" y="241.441155" style="fill: #696969; fill-opacity: 0.9; stroke: #000000; stroke-opacity: 0.9; stroke-width: 0.4"/>
     <use xlink:href="#m3a4c5f12f5" x="776.201692" y="166.367148" style="fill: #696969; fill-opacity: 0.9; stroke: #000000; stroke-opacity: 0.9; stroke-width: 0.4"/>
     <use xlink:href="#m3a4c5f12f5" x="763.204417" y="248.453382" style="fill: #696969; fill-opacity: 0.9; stroke: #000000; stroke-opacity: 0.9; stroke-width: 0.4"/>
     <use xlink:href="#m3a4c5f12f5" x="599.94805" y="237.316101" style="fill: #696969; fill-opacity: 0.9; stroke: #000000; stroke-opacity: 0.9; stroke-width: 0.4"/>
     <use xlink:href="#m3a4c5f12f5" x="828.933587" y="238.257503" style="fill: #696969; fill-opacity: 0.9; stroke: #000000; stroke-opacity: 0.9; stroke-width: 0.4"/>
     <use xlink:href="#m3a4c5f12f5" x="765.218038" y="240.611305" style="fill: #696969; fill-opacity: 0.9; stroke: #000000; stroke-opacity: 0.9; stroke-width: 0.4"/>
     <use xlink:href="#m3a4c5f12f5" x="742.596605" y="225.463235" style="fill: #696969; fill-opacity: 0.9; stroke: #000000; stroke-opacity: 0.9; stroke-width: 0.4"/>
     <use xlink:href="#m3a4c5f12f5" x="691.517167" y="222.017951" style="fill: #696969; fill-opacity: 0.9; stroke: #000000; stroke-opacity: 0.9; stroke-width: 0.4"/>
     <use xlink:href="#m3a4c5f12f5" x="799.720864" y="271.410971" style="fill: #696969; fill-opacity: 0.9; stroke: #000000; stroke-opacity: 0.9; stroke-width: 0.4"/>
    </g>
   </g>
   <g id="legend_1">
    <g id="line2d_17">
     <path d="M 65.939375 308.610625 
L 77.939375 308.610625 
L 89.939375 308.610625 
" style="fill: none; stroke: #c62828; stroke-width: 6; stroke-linecap: square"/>
    </g>
    <g id="text_24">
     <!-- 25 April Slip -->
     <g transform="translate(99.539375 312.810625) scale(0.12 -0.12)">
      <defs>
       <path id="DejaVuSerif-35" d="M 3219 4666 
L 3219 4153 
L 1081 4153 
L 1081 2816 
Q 1244 2928 1461 2984 
Q 1678 3041 1947 3041 
Q 2703 3041 3140 2622 
Q 3578 2203 3578 1478 
Q 3578 738 3136 323 
Q 2694 -91 1894 -91 
Q 1572 -91 1234 -12 
Q 897 66 544 225 
L 544 1131 
L 897 1131 
Q 925 688 1179 453 
Q 1434 219 1894 219 
Q 2388 219 2653 544 
Q 2919 869 2919 1478 
Q 2919 2084 2655 2407 
Q 2391 2731 1894 2731 
Q 1613 2731 1398 2631 
Q 1184 2531 1019 2322 
L 750 2322 
L 750 4666 
L 3219 4666 
z
" transform="scale(0.015625)"/>
       <path id="DejaVuSerif-41" d="M 1281 1691 
L 2994 1691 
L 2138 3909 
L 1281 1691 
z
M -38 0 
L -38 331 
L 372 331 
L 2034 4666 
L 2559 4666 
L 4225 331 
L 4684 331 
L 4684 0 
L 2988 0 
L 2988 331 
L 3506 331 
L 3116 1356 
L 1153 1356 
L 763 331 
L 1275 331 
L 1275 0 
L -38 0 
z
" transform="scale(0.015625)"/>
      </defs>
      <use xlink:href="#DejaVuSerif-32"/>
      <use xlink:href="#DejaVuSerif-35" transform="translate(63.623047 0)"/>
      <use xlink:href="#DejaVuSerif-20" transform="translate(127.246094 0)"/>
      <use xlink:href="#DejaVuSerif-41" transform="translate(159.033203 0)"/>
      <use xlink:href="#DejaVuSerif-70" transform="translate(231.25 0)"/>
      <use xlink:href="#DejaVuSerif-72" transform="translate(295.263672 0)"/>
      <use xlink:href="#DejaVuSerif-69" transform="translate(343.066406 0)"/>
      <use xlink:href="#DejaVuSerif-6c" transform="translate(375.048828 0)"/>
      <use xlink:href="#DejaVuSerif-20" transform="translate(407.03125 0)"/>
      <use xlink:href="#DejaVuSerif-53" transform="translate(438.818359 0)"/>
      <use xlink:href="#DejaVuSerif-6c" transform="translate(507.324219 0)"/>
      <use xlink:href="#DejaVuSerif-69" transform="translate(539.306641 0)"/>
      <use xlink:href="#DejaVuSerif-70" transform="translate(571.289062 0)"/>
     </g>
    </g>
    <g id="line2d_18">
     <path d="M 65.939375 326.224375 
L 77.939375 326.224375 
L 89.939375 326.224375 
" style="fill: none; stroke: #1565c0; stroke-width: 6; stroke-linecap: square"/>
    </g>
    <g id="text_25">
     <!-- 12 May Slip -->
     <g transform="translate(99.539375 330.424375) scale(0.12 -0.12)">
      <defs>
       <path id="DejaVuSerif-4d" d="M 353 0 
L 353 331 
L 947 331 
L 947 4331 
L 319 4331 
L 319 4666 
L 1678 4666 
L 3316 1344 
L 4953 4666 
L 6228 4666 
L 6228 4331 
L 5606 4331 
L 5606 331 
L 6203 331 
L 6203 0 
L 4378 0 
L 4378 331 
L 4972 331 
L 4972 3938 
L 3372 684 
L 2931 684 
L 1331 3938 
L 1331 331 
L 1925 331 
L 1925 0 
L 353 0 
z
" transform="scale(0.015625)"/>
      </defs>
      <use xlink:href="#DejaVuSerif-31"/>
      <use xlink:href="#DejaVuSerif-32" transform="translate(63.623047 0)"/>
      <use xlink:href="#DejaVuSerif-20" transform="translate(127.246094 0)"/>
      <use xlink:href="#DejaVuSerif-4d" transform="translate(159.033203 0)"/>
      <use xlink:href="#DejaVuSerif-61" transform="translate(261.425781 0)"/>
      <use xlink:href="#DejaVuSerif-79" transform="translate(321.044922 0)"/>
      <use xlink:href="#DejaVuSerif-20" transform="translate(377.539062 0)"/>
      <use xlink:href="#DejaVuSerif-53" transform="translate(409.326172 0)"/>
      <use xlink:href="#DejaVuSerif-6c" transform="translate(477.832031 0)"/>
      <use xlink:href="#DejaVuSerif-69" transform="translate(509.814453 0)"/>
      <use xlink:href="#DejaVuSerif-70" transform="translate(541.796875 0)"/>
     </g>
    </g>
    <g id="line2d_19">
     <path d="M 65.939375 344.00875 
L 77.939375 344.00875 
L 89.939375 344.00875 
" style="fill: none; stroke: #ffffff; stroke-width: 1.5; stroke-linecap: square"/>
     <defs>
      <path id="m616c526481" d="M 0 4 
C 1.060812 4 2.078319 3.578535 2.828427 2.828427 
C 3.578535 2.078319 4 1.060812 4 0 
C 4 -1.060812 3.578535 -2.078319 2.828427 -2.828427 
C 2.078319 -3.578535 1.060812 -4 0 -4 
C -1.060812 -4 -2.078319 -3.578535 -2.828427 -2.828427 
C -3.578535 -2.078319 -4 -1.060812 -4 0 
C -4 1.060812 -3.578535 2.078319 -2.828427 2.828427 
C -2.078319 3.578535 -1.060812 4 0 4 
z
" style="stroke: #000000"/>
     </defs>
     <g>
      <use xlink:href="#m616c526481" x="77.939375" y="344.00875" style="fill: #d32f2f; stroke: #000000"/>
     </g>
    </g>
    <g id="text_26">
     <!-- Aftershocks -->
     <g transform="translate(99.539375 348.20875) scale(0.12 -0.12)">
      <defs>
       <path id="DejaVuSerif-66" d="M 2753 4078 
L 2450 4078 
Q 2447 4313 2317 4434 
Q 2188 4556 1941 4556 
Q 1619 4556 1487 4379 
Q 1356 4203 1356 3750 
L 1356 3322 
L 2284 3322 
L 2284 2988 
L 1356 2988 
L 1356 331 
L 2094 331 
L 2094 0 
L 231 0 
L 231 331 
L 781 331 
L 781 2988 
L 231 2988 
L 231 3322 
L 781 3322 
L 781 3738 
Q 781 4294 1070 4578 
Q 1359 4863 1919 4863 
Q 2128 4863 2337 4825 
Q 2547 4788 2753 4709 
L 2753 4078 
z
" transform="scale(0.015625)"/>
      </defs>
      <use xlink:href="#DejaVuSerif-41"/>
      <use xlink:href="#DejaVuSerif-66" transform="translate(70.466797 0)"/>
      <use xlink:href="#DejaVuSerif-74" transform="translate(107.478516 0)"/>
      <use xlink:href="#DejaVuSerif-65" transform="translate(147.664062 0)"/>
      <use xlink:href="#DejaVuSerif-72" transform="translate(206.84375 0)"/>
      <use xlink:href="#DejaVuSerif-73" transform="translate(254.646484 0)"/>
      <use xlink:href="#DejaVuSerif-68" transform="translate(305.964844 0)"/>
      <use xlink:href="#DejaVuSerif-6f" transform="translate(370.369141 0)"/>
      <use xlink:href="#DejaVuSerif-63" transform="translate(430.574219 0)"/>
      <use xlink:href="#DejaVuSerif-6b" transform="translate(486.580078 0)"/>
      <use xlink:href="#DejaVuSerif-73" transform="translate(547.175781 0)"/>
     </g>
    </g>
    <g id="line2d_20">
     <path d="M 65.939375 361.6225 
L 77.939375 361.6225 
L 89.939375 361.6225 
" style="fill: none; stroke: #ffffff; stroke-width: 1.5; stroke-linecap: square"/>
     <defs>
      <path id="meb6d471d19" d="M 0 4 
C 1.060812 4 2.078319 3.578535 2.828427 2.828427 
C 3.578535 2.078319 4 1.060812 4 0 
C 4 -1.060812 3.578535 -2.078319 2.828427 -2.828427 
C 2.078319 -3.578535 1.060812 -4 0 -4 
C -1.060812 -4 -2.078319 -3.578535 -2.828427 -2.828427 
C -3.578535 -2.078319 -4 -1.060812 -4 0 
C -4 1.060812 -3.578535 2.078319 -2.828427 2.828427 
C -2.078319 3.578535 -1.060812 4 0 4 
z
" style="stroke: #000000"/>
     </defs>
     <g>
      <use xlink:href="#meb6d471d19" x="77.939375" y="361.6225" style="fill: #696969; stroke: #000000"/>
     </g>
    </g>
    <g id="text_27">
     <!-- Prior Seismicity -->
     <g transform="translate(99.539375 365.8225) scale(0.12 -0.12)">
      <use xlink:href="#DejaVuSerif-50"/>
      <use xlink:href="#DejaVuSerif-72" transform="translate(67.285156 0)"/>
      <use xlink:href="#DejaVuSerif-69" transform="translate(115.087891 0)"/>
      <use xlink:href="#DejaVuSerif-6f" transform="translate(147.070312 0)"/>
      <use xlink:href="#DejaVuSerif-72" transform="translate(207.275391 0)"/>
      <use xlink:href="#DejaVuSerif-20" transform="translate(255.078125 0)"/>
      <use xlink:href="#DejaVuSerif-53" transform="translate(286.865234 0)"/>
      <use xlink:href="#DejaVuSerif-65" transform="translate(355.371094 0)"/>
      <use xlink:href="#DejaVuSerif-69" transform="translate(414.550781 0)"/>
      <use xlink:href="#DejaVuSerif-73" transform="translate(446.533203 0)"/>
      <use xlink:href="#DejaVuSerif-6d" transform="translate(497.851562 0)"/>
      <use xlink:href="#DejaVuSerif-69" transform="translate(592.675781 0)"/>
      <use xlink:href="#DejaVuSerif-63" transform="translate(624.658203 0)"/>
      <use xlink:href="#DejaVuSerif-69" transform="translate(680.664062 0)"/>
      <use xlink:href="#DejaVuSerif-74" transform="translate(712.646484 0)"/>
      <use xlink:href="#DejaVuSerif-79" transform="translate(752.832031 0)"/>
     </g>
    </g>
   </g>
   <g id="PathCollection_3">
    <defs>
     <path id="mf01aa2b6c0" d="M 0 4.472136 
C 1.186024 4.472136 2.323632 4.000923 3.162278 3.162278 
C 4.000923 2.323632 4.472136 1.186024 4.472136 0 
C 4.472136 -1.186024 4.000923 -2.323632 3.162278 -3.162278 
C 2.323632 -4.000923 1.186024 -4.472136 0 -4.472136 
C -1.186024 -4.472136 -2.323632 -4.000923 -3.162278 -3.162278 
C -4.000923 -2.323632 -4.472136 -1.186024 -4.472136 0 
C -4.472136 1.186024 -4.000923 2.323632 -3.162278 3.162278 
C -2.323632 4.000923 -1.186024 4.472136 0 4.472136 
z
" style="stroke: #000000"/>
    </defs>
    <g clip-path="url(#p209ed8d985)">
     <use xlink:href="#mf01aa2b6c0" x="498.036875" y="79.006601" style="stroke: #000000"/>
    </g>
   </g>
  </g>
 </g>
 <defs>
  <clipPath id="p209ed8d985">
   <rect x="55.139375" y="7.2" width="922.703125" height="372.08875"/>
  </clipPath>
 </defs>
</svg>
